<?xml version="1.0" encoding="UTF-8"?>
<svg version="1.1" xmlns="http://www.w3.org/2000/svg" width="96" height="96">
<path d="M0 0 C0.89589844 0.00322266 1.79179687 0.00644531 2.71484375 0.00976562 C4.12056641 0.02233398 4.12056641 0.02233398 5.5546875 0.03515625 C6.49957031 0.03966797 7.44445312 0.04417969 8.41796875 0.04882812 C10.75527137 0.06063268 13.09244811 0.07709866 15.4296875 0.09765625 C15.7596875 1.08765625 16.0896875 2.07765625 16.4296875 3.09765625 C19.0696875 3.09765625 21.7096875 3.09765625 24.4296875 3.09765625 C24.7596875 2.10765625 25.0896875 1.11765625 25.4296875 0.09765625 C28.9919106 -0.01888811 32.55364092 -0.08970765 36.1171875 -0.15234375 C37.62829102 -0.20261719 37.62829102 -0.20261719 39.16992188 -0.25390625 C46.6800624 -0.35305002 46.6800624 -0.35305002 50.57421875 1.98828125 C53.98844449 5.86971682 53.54766498 9.2808929 53.4921875 14.22265625 C53.48767578 14.97675781 53.48316406 15.73085938 53.47851562 16.5078125 C53.46672249 18.37112752 53.44878692 20.2344018 53.4296875 22.09765625 C54.09355469 22.05125 54.75742188 22.00484375 55.44140625 21.95703125 C62.71442429 21.65974 62.71442429 21.65974 66.4921875 23.97265625 C69.30016685 27.05237554 69.5583991 28.70592544 69.59082031 32.77514648 C69.60042786 33.74632919 69.6100354 34.7175119 69.61993408 35.71812439 C69.62418396 36.77020584 69.62843384 37.82228729 69.6328125 38.90625 C69.63851257 39.98391129 69.64421265 41.06157257 69.65008545 42.17189026 C69.65954273 44.4541831 69.66607231 46.73648964 69.66992188 49.01879883 C69.67963799 52.51733065 69.71065934 56.01527777 69.7421875 59.51367188 C69.74871628 61.72786108 69.75396724 63.9420545 69.7578125 66.15625 C69.7701593 67.20630722 69.7825061 68.25636444 69.79522705 69.33824158 C69.79222595 70.31257645 69.78922485 71.28691132 69.78613281 72.29077148 C69.79160126 73.57744972 69.79160126 73.57744972 69.79718018 74.89012146 C69.34205259 77.62408065 68.66861926 78.49458859 66.4296875 80.09765625 C63.34977427 80.49395714 61.38443111 80.70910698 58.4296875 80.09765625 C55.75390625 77.9453125 55.75390625 77.9453125 53.1171875 75.16015625 C45.05326068 67.72899445 34.78365905 69.11183651 24.46484375 69.2578125 C19.72030789 69.2718262 16.3820656 68.99561334 12.4296875 66.09765625 C11.0546875 63.41015625 11.0546875 63.41015625 10.4296875 61.09765625 C10.7596875 60.76765625 11.0896875 60.43765625 11.4296875 60.09765625 C11.47061687 57.76468192 11.47210473 55.430604 11.4296875 53.09765625 C10.70523437 53.66355469 9.98078125 54.22945312 9.234375 54.8125 C8.26757812 55.54597656 7.30078125 56.27945313 6.3046875 57.03515625 C5.35335938 57.76605469 4.40203125 58.49695313 3.421875 59.25 C0.18417905 61.24925612 -1.76505458 62.10270301 -5.5703125 62.09765625 C-8.42578125 60.58203125 -8.42578125 60.58203125 -10.5703125 58.09765625 C-11.05859375 54.86328125 -11.05859375 54.86328125 -10.8828125 51.34765625 C-10.83769531 50.1771875 -10.79257813 49.00671875 -10.74609375 47.80078125 C-10.68808594 46.90875 -10.63007813 46.01671875 -10.5703125 45.09765625 C-9.9103125 45.09765625 -9.2503125 45.09765625 -8.5703125 45.09765625 C-8.89338379 44.26500244 -9.21645508 43.43234863 -9.54931641 42.57446289 C-11.25478332 36.76682197 -10.94221367 30.82676047 -10.94091797 24.82055664 C-10.94530737 22.53782402 -10.98172458 20.25700276 -11.01953125 17.97460938 C-11.02539756 16.51432948 -11.0293682 15.05404047 -11.03125 13.59375 C-11.03946777 12.27560303 -11.04768555 10.95745605 -11.05615234 9.59936523 C-10.49658098 5.56623352 -9.42001008 3.94436672 -6.5703125 1.09765625 C-4.16971433 -0.10264283 -2.67670601 -0.01694118 0 0 Z " fill="#8353FE" transform="translate(18.5703125,7.90234375)"/>
<path d="M0 0 C0.89589844 0.00322266 1.79179687 0.00644531 2.71484375 0.00976562 C4.12056641 0.02233398 4.12056641 0.02233398 5.5546875 0.03515625 C6.49957031 0.03966797 7.44445312 0.04417969 8.41796875 0.04882812 C10.75527137 0.06063268 13.09244811 0.07709866 15.4296875 0.09765625 C15.7596875 1.08765625 16.0896875 2.07765625 16.4296875 3.09765625 C17.6878125 3.03578125 18.9459375 2.97390625 20.2421875 2.91015625 C22.38671875 2.8046875 22.38671875 2.8046875 24.4296875 3.09765625 C24.88102051 3.59031982 25.33235352 4.0829834 25.79736328 4.59057617 C27.84510262 6.48119761 28.84161943 6.47705561 31.58984375 6.50390625 C32.7799707 6.53677734 32.7799707 6.53677734 33.99414062 6.5703125 C35.66341099 6.58858442 37.33268183 6.60681339 39.00195312 6.625 C39.79408203 6.64691406 40.58621094 6.66882813 41.40234375 6.69140625 C42.12687744 6.69849609 42.85141113 6.70558594 43.59790039 6.71289062 C45.4296875 7.09765625 45.4296875 7.09765625 47.4296875 10.09765625 C47.67260742 12.9609375 47.67260742 12.9609375 47.66015625 16.41015625 C47.65822266 17.65023438 47.65628906 18.8903125 47.65429688 20.16796875 C47.63592773 22.11316406 47.63592773 22.11316406 47.6171875 24.09765625 C47.61654297 25.39445312 47.61589844 26.69125 47.61523438 28.02734375 C47.57009835 37.67642371 47.57009835 37.67642371 46.4296875 41.09765625 C43.56862167 42.52818916 41.20814651 42.09906738 38.015625 41.9921875 C17.24811005 41.62467348 17.24811005 41.62467348 0.03515625 52.5078125 C-0.82464844 53.36246094 -1.68445313 54.21710937 -2.5703125 55.09765625 C-3.2303125 55.09765625 -3.8903125 55.09765625 -4.5703125 55.09765625 C-4.73307292 53.07942708 -4.89583333 51.06119792 -5.05859375 49.04296875 C-5.44424286 46.70246409 -5.44424286 46.70246409 -8.5703125 45.09765625 C-11.42543888 38.61595767 -10.94241525 31.76120031 -10.94091797 24.82055664 C-10.94530737 22.53782402 -10.98172458 20.25700276 -11.01953125 17.97460938 C-11.02539756 16.51432948 -11.0293682 15.05404047 -11.03125 13.59375 C-11.03946777 12.27560303 -11.04768555 10.95745605 -11.05615234 9.59936523 C-10.49658098 5.56623352 -9.42001008 3.94436672 -6.5703125 1.09765625 C-4.16971433 -0.10264283 -2.67670601 -0.01694118 0 0 Z " fill="#C9C7FE" transform="translate(18.5703125,7.90234375)"/>
<path d="M0 0 C2.31 0 4.62 0 7 0 C8.63270104 2.87581413 9.24741973 4.91800375 9.22705078 8.21777344 C9.22689972 9.03832214 9.22674866 9.85887085 9.22659302 10.70428467 C9.21627045 11.58046448 9.20594788 12.45664429 9.1953125 13.359375 C9.1924826 14.26375305 9.18965271 15.1681311 9.18673706 16.09991455 C9.17555782 18.98341195 9.15045733 21.86659675 9.125 24.75 C9.11496728 26.70702676 9.10584194 28.66405839 9.09765625 30.62109375 C9.07562585 35.41418262 9.04111144 40.20703834 9 45 C5.30497 43.41911716 2.73551699 41.04730711 -0.28515625 38.4296875 C-7.20756453 32.91241773 -13.71636049 32.84991231 -22.4375 33.125 C-25.08250237 33.16959838 -27.72550878 33.18468232 -30.37109375 33.1953125 C-31.52536865 33.22641113 -32.67964355 33.25750977 -33.86889648 33.28955078 C-37.37786297 32.96505688 -39.20958901 32.11487159 -42 30 C-42.59375 28.0625 -42.59375 28.0625 -42.5 26 C-42.4896875 25.319375 -42.479375 24.63875 -42.46875 23.9375 C-41.84472311 21.35818887 -41.13687916 20.58925898 -39 19 C-35.98486328 18.61523438 -35.98486328 18.61523438 -32.3203125 18.59375 C-31.34564529 18.57749573 -31.34564529 18.57749573 -30.35128784 18.56091309 C-28.27575745 18.52667317 -26.20077552 18.51106952 -24.125 18.5 C-21.39791358 18.48538266 -18.67204225 18.45158945 -15.9453125 18.40625 C-14.73375488 18.39916016 -13.52219727 18.39207031 -12.27392578 18.38476562 C-8.72544058 17.96773261 -6.84733965 17.11420396 -4 15 C-2.1112193 12.19282134 -1.69985646 9.71306733 -1.4375 6.375 C-1.09722222 2.19444444 -1.09722222 2.19444444 0 0 Z " fill="#CDCBFE" transform="translate(73,37)"/>
<path d="M0 0 C0.89589844 0.00322266 1.79179687 0.00644531 2.71484375 0.00976562 C4.12056641 0.02233398 4.12056641 0.02233398 5.5546875 0.03515625 C6.49957031 0.03966797 7.44445312 0.04417969 8.41796875 0.04882812 C10.75527137 0.06063268 13.09244811 0.07709866 15.4296875 0.09765625 C15.81187517 1.75380282 16.14363852 3.42222649 16.4296875 5.09765625 C14.14261707 7.38472668 7.85828778 6.5061684 4.59960938 6.61523438 C0.03993217 6.63109045 0.03993217 6.63109045 -3.5703125 9.09765625 C-3.94327806 12.10738282 -3.94327806 12.10738282 -3.984375 15.63671875 C-4.02304688 16.93867188 -4.06171875 18.240625 -4.1015625 19.58203125 C-4.13302013 20.96223487 -4.16426741 22.34244329 -4.1953125 23.72265625 C-4.23349184 25.11070166 -4.27254355 26.49872336 -4.3125 27.88671875 C-4.40704193 31.2902281 -4.49259147 34.6937279 -4.5703125 38.09765625 C-6.2203125 38.75765625 -7.8703125 39.41765625 -9.5703125 40.09765625 C-11.49951968 38.16844907 -10.78086305 34.58855525 -10.80859375 31.95703125 C-10.8166655 31.23783508 -10.82473724 30.51863892 -10.83305359 29.77764893 C-10.84691098 28.25104188 -10.85762571 26.72440364 -10.86547852 25.19775391 C-10.8826417 22.87081313 -10.9265029 20.5453117 -10.97070312 18.21875 C-10.98083432 16.73568754 -10.98934909 15.25261298 -10.99609375 13.76953125 C-11.01360184 13.07664001 -11.03110992 12.38374878 -11.04914856 11.66986084 C-11.02776782 6.86776844 -9.96519595 4.46765574 -6.5703125 1.09765625 C-4.16971433 -0.10264283 -2.67670601 -0.01694118 0 0 Z " fill="#8251FD" transform="translate(18.5703125,7.90234375)"/>
</svg>
